<svg width="22" height="20" viewBox="0 0 22 20" fill="none" xmlns="http://www.w3.org/2000/svg">
<path fill-rule="evenodd" clip-rule="evenodd" d="M5.38909 0.43934C5.97487 -0.146447 6.92462 -0.146447 7.51041 0.43934C8.09619 1.02513 8.09619 1.97487 7.51041 2.56066L5.12208 4.94899H12.3794C17.6261 4.94899 21.8794 9.20229 21.8794 14.449V18.449C21.8794 19.2774 21.2079 19.949 20.3794 19.949C19.551 19.949 18.8794 19.2774 18.8794 18.449V14.449C18.8794 10.8591 15.9693 7.94899 12.3794 7.94899H5.12057L7.51041 10.3388C8.09619 10.9246 8.09619 11.8744 7.51041 12.4602C6.92462 13.0459 5.97487 13.0459 5.38909 12.4602L0.43934 7.51041C-0.146447 6.92462 -0.146447 5.97487 0.43934 5.38909L1.5 4.32843L5.38909 0.43934Z" fill="white"/>
</svg>
