<svg width="1048" height="90" viewBox="0 0 1048 90" fill="none" xmlns="http://www.w3.org/2000/svg">
<path d="M65.0601 -1.22884e-05L127 -2.39876e-05L61.94 90L1.69991e-05 90L65.0601 -1.22884e-05Z" fill="#E9C33D"/>
<path d="M127.06 -1.22884e-05L189 -2.39876e-05L123.94 90L62 90L127.06 -1.22884e-05Z" fill="#202020"/>
<path d="M555.06 -1.22884e-05L617 -2.39876e-05L551.94 90L490 90L555.06 -1.22884e-05Z" fill="#E9C33D"/>
<path d="M617.06 -1.22884e-05L679 -2.39876e-05L613.94 90L552 90L617.06 -1.22884e-05Z" fill="#202020"/>
<path d="M310.06 -1.22884e-05L372 -2.39876e-05L306.94 90L245 90L310.06 -1.22884e-05Z" fill="#E9C33D"/>
<path d="M372.06 -1.22884e-05L434 -2.39876e-05L368.94 90L307 90L372.06 -1.22884e-05Z" fill="#202020"/>
<path d="M800.061 -1.22884e-05L862 -2.39876e-05L796.94 90L735.001 90L800.061 -1.22884e-05Z" fill="#E9C33D"/>
<path d="M862.061 -1.22884e-05L924 -2.39876e-05L858.94 90L797.001 90L862.061 -1.22884e-05Z" fill="#202020"/>
<path d="M189.06 -1.22884e-05L251 -2.39876e-05L185.94 90L124 90L189.06 -1.22884e-05Z" fill="#E9C33D"/>
<path d="M251.06 -1.22884e-05L313 -2.39876e-05L247.94 90L186 90L251.06 -1.22884e-05Z" fill="#202020"/>
<path d="M679.06 -1.22884e-05L741 -2.39876e-05L675.94 90L614 90L679.06 -1.22884e-05Z" fill="#E9C33D"/>
<path d="M741.06 -1.22884e-05L803 -2.39876e-05L737.94 90L676 90L741.06 -1.22884e-05Z" fill="#202020"/>
<path d="M434.06 -1.22884e-05L496 -2.39876e-05L430.94 90L369 90L434.06 -1.22884e-05Z" fill="#E9C33D"/>
<path d="M496.06 -1.22884e-05L558 -2.39876e-05L492.94 90L431 90L496.06 -1.22884e-05Z" fill="#202020"/>
<path d="M924.06 -1.22884e-05L986 -2.39876e-05L920.94 90L859 90L924.06 -1.22884e-05Z" fill="#E9C33D"/>
<path d="M986.06 -1.22884e-05L1048 -2.39876e-05L982.94 90L921 90L986.06 -1.22884e-05Z" fill="#202020"/>
</svg>
