<svg width="20" height="17" viewBox="0 0 20 17" fill="none" xmlns="http://www.w3.org/2000/svg">
<path fill-rule="evenodd" clip-rule="evenodd" d="M6.46447 7.94926C6.85499 8.33978 7.48816 8.33978 7.87868 7.94926L9.99955 5.82839L12.1206 7.94941C12.5111 8.33993 13.1443 8.33993 13.5348 7.94941C13.9253 7.55889 13.9253 6.92572 13.5348 6.5352L11.4138 4.41418L11.4142 4.41373L10.7071 3.70662C10.3166 3.31609 9.68342 3.31609 9.29289 3.70662L6.46447 6.53505C6.07394 6.92557 6.07394 7.55873 6.46447 7.94926Z" fill="#FF8A3B"/>
<path d="M9 5H11V16C11 16.5523 10.5523 17 10 17C9.44772 17 9 16.5523 9 16V5Z" fill="#FF8A3B"/>
<path d="M14 13H17C18.1046 13 19 12.1046 19 11V3C19 1.89543 18.1046 1 17 1H3C1.89543 1 1 1.89543 1 3V11C1 12.1046 1.89543 13 3 13H6" stroke="#FF8A3B" stroke-width="2" stroke-linecap="round"/>
</svg>
