<svg width="22" height="20" viewBox="0 0 22 20" fill="none" xmlns="http://www.w3.org/2000/svg">
<path fill-rule="evenodd" clip-rule="evenodd" d="M5.38908 0.439353C5.97487 -0.146434 6.92462 -0.146434 7.51041 0.439353C8.09619 1.02514 8.09619 1.97489 7.51041 2.56067L5.12207 4.94901H12.3794C17.6261 4.94901 21.8794 9.2023 21.8794 14.449V18.449C21.8794 19.2774 21.2079 19.949 20.3794 19.949C19.551 19.949 18.8794 19.2774 18.8794 18.449V14.449C18.8794 10.8592 15.9693 7.94901 12.3794 7.94901H5.12056L7.51041 10.3388C8.09619 10.9246 8.09619 11.8744 7.51041 12.4602C6.92462 13.046 5.97487 13.046 5.38908 12.4602L0.439337 7.51042C-0.146449 6.92463 -0.146449 5.97489 0.439338 5.3891L1.5 4.32844L5.38908 0.439353Z" fill="white"/>
</svg>
