<svg width="16" height="17" viewBox="0 0 16 17" fill="none" xmlns="http://www.w3.org/2000/svg">
<path d="M3 1H13C14.1046 1 15 1.89543 15 3V9C15 10.1046 14.1046 11 13 11H8.92378C8.03611 11 7.19657 11.4035 6.64205 12.0967L5.53148 13.4849C5.35525 13.7052 5 13.5805 5 13.2984C5 12.029 3.97095 11 2.70156 11H2C1.44772 11 1 10.5523 1 10V3C1 1.89543 1.89543 1 3 1Z" stroke="#A3A3A3" stroke-width="2"/>
<rect x="4" y="5" width="2" height="2" rx="1" fill="#A3A3A3"/>
<rect x="7" y="5" width="2" height="2" rx="1" fill="#A3A3A3"/>
<rect x="10" y="5" width="2" height="2" rx="1" fill="#A3A3A3"/>
</svg>
