<svg xmlns="http://www.w3.org/2000/svg" viewBox="0 0 772.21 545.41"><g id="Layer_2" data-name="Layer 2"><g id="Layer_1-2" data-name="Layer 1"><path d="M724.59,527.19H712.15v-53.4h10.93q15,0,22.18,7t7.22,19.91q0,12.94-7.22,19.73T724.59,527.19Zm-1-70.48h-31v87.82h30q25.13,0,37.38-11.93t12.25-32.42q0-20.48-12.57-32T723.58,456.71Zm-132.05,0v87.82h64.71V527.19H611.13V509h39.33V492.26H611.13V474.17h43.73V456.71ZM555.6,544.53V527.44H509l45.86-57.16V456.71H483.6v17h44.48l-46,57.42v13.44ZM421.66,508.35h-22l11.06-25.51Zm36.44,36.18-38-87.82h-19l-37.94,87.82h20.85l8.17-19h36.81l8.17,19Zm-143.49,0h19.6V456.71H307.83L285.08,505l-22.61-48.24H236v87.82h19.6V489.25l23.62,48h11.68l23.75-48ZM175.9,513.25l-43.09-56.54H114.46v87.82h19.6v-55l41.84,55h19.6V456.71H175.9ZM19.6,505.2V456.71H0v49.12q0,19,10.62,29.28t27.07,10.3q16.47,0,27-10.24t10.55-29.34V456.71H55.66V505.2q0,10.56-4.84,16.65A15.85,15.85,0,0,1,37.69,528a16,16,0,0,1-13.19-6.1Q19.6,515.76,19.6,505.2Z"/><rect x="399.29" y="25.87" width="27.47" height="1.59"/><polygon points="316.9 274.63 426.76 274.63 426.76 357.03 399.29 357.03 399.29 302.1 316.9 302.1 316.9 357.03 235.61 357.03 235.61 329.57 289.43 329.57 289.43 192.24 235.61 192.24 235.61 164.79 344.37 164.79 344.37 109.81 371.82 109.81 371.82 192.24 316.9 192.24 316.9 274.63"/><polygon points="536.6 54.93 536.6 247.18 509.15 247.18 509.15 192.24 399.29 192.24 399.29 54.93 426.76 54.93 426.76 164.79 509.15 164.79 509.15 54.93 536.6 54.93"/><polygon points="536.62 0.01 536.62 27.46 481.68 27.46 481.68 137.87 454.21 137.87 454.21 27.46 261.98 27.46 261.98 82.4 235.61 82.4 235.61 0.01 536.62 0.01"/><polygon points="591.53 0 591.53 411.96 344.36 411.96 344.36 329.57 371.82 329.57 371.82 384.49 454.21 384.49 454.21 329.57 481.68 329.57 481.68 384.49 509.14 384.49 509.14 302.1 454.21 302.1 454.21 247.18 344.36 247.18 344.36 219.71 481.68 219.71 481.68 274.63 536.6 274.63 536.6 384.49 564.07 384.49 564.07 0 591.53 0"/><polygon points="371.82 54.93 371.82 82.39 316.89 82.39 316.89 137.32 208.14 137.32 208.14 274.64 234.09 274.64 234.09 219.71 261.97 219.71 261.97 302.1 208.14 302.1 208.14 384.49 316.89 384.49 316.89 411.95 180.67 411.95 180.67 0 208.14 0 208.14 109.85 289.43 109.85 289.43 54.93 371.82 54.93"/></g></g></svg>