<svg width="50" height="50" viewBox="0 0 50 50" fill="none" xmlns="http://www.w3.org/2000/svg">
<g filter="url(#filter0_d_73_108)">
<path fill-rule="evenodd" clip-rule="evenodd" d="M26.5 21.5C26.5 20.6716 25.8284 20 25 20C24.1716 20 23.5 20.6716 23.5 21.5L23.5 23.5H21.5C20.6716 23.5 20 24.1716 20 25C20 25.8284 20.6716 26.5 21.5 26.5H23.5L23.5 28.5C23.5 29.3284 24.1716 30 25 30C25.8284 30 26.5 29.3284 26.5 28.5V26.5H28.5C29.3284 26.5 30 25.8284 30 25C30 24.1716 29.3284 23.5 28.5 23.5H26.5V21.5Z" fill="#A3A3A3"/>
</g>
<defs>
<filter id="filter0_d_73_108" x="0" y="0" width="50" height="50" filterUnits="userSpaceOnUse" color-interpolation-filters="sRGB">
<feFlood flood-opacity="0" result="BackgroundImageFix"/>
<feColorMatrix in="SourceAlpha" type="matrix" values="0 0 0 0 0 0 0 0 0 0 0 0 0 0 0 0 0 0 127 0" result="hardAlpha"/>
<feOffset/>
<feGaussianBlur stdDeviation="10"/>
<feComposite in2="hardAlpha" operator="out"/>
<feColorMatrix type="matrix" values="0 0 0 0 0 0 0 0 0 0 0 0 0 0 0 0 0 0 0.25 0"/>
<feBlend mode="normal" in2="BackgroundImageFix" result="effect1_dropShadow_73_108"/>
<feBlend mode="normal" in="SourceGraphic" in2="effect1_dropShadow_73_108" result="shape"/>
</filter>
</defs>
</svg>
