<svg width="95" height="140" viewBox="0 0 95 140" fill="none" xmlns="http://www.w3.org/2000/svg">
<path fill-rule="evenodd" clip-rule="evenodd" d="M37.1357 25.2813C38.3311 26.479 40.271 26.4808 41.4686 25.2855L47.9728 18.7937L54.4651 25.2983C55.6604 26.4959 57.6003 26.4978 58.798 25.3024C59.9956 24.107 59.9974 22.1671 58.8021 20.9695L52.3098 14.4649L52.3112 14.4635L50.1468 12.295C48.9515 11.0973 47.0115 11.0955 45.8139 12.2909L37.1399 20.9484C35.9422 22.1438 35.9404 24.0837 37.1357 25.2813Z" fill="white"/>
<path d="M44.9111 16.2529L51.0388 16.2588L51.0067 49.9609C51.0051 51.653 49.6321 53.0234 47.94 53.0218C46.2479 53.0202 44.8775 51.6471 44.8791 49.955L44.9111 16.2529Z" fill="white"/>
<path d="M60.2079 40.7779L69.3994 40.7867C72.7836 40.7899 75.5296 38.0491 75.5329 34.6648L75.5562 10.1542C75.5594 6.77 72.8186 4.02395 69.4343 4.02073L26.5407 3.97995C23.1565 3.97673 20.4105 6.71757 20.4073 10.1018L20.384 34.6124C20.3807 37.9966 23.1216 40.7427 26.5058 40.7459L35.6973 40.7546" stroke="white" stroke-width="6.12766" stroke-linecap="round"/>
<path d="M35.1529 93.6759C34.7913 92.5006 34.2919 91.4483 33.6544 90.5193C33.0316 89.5758 32.278 88.7699 31.3937 88.1018C30.5239 87.4336 29.5234 86.9322 28.3922 86.5975C27.261 86.2482 26.0281 86.073 24.6935 86.0717C22.2999 86.0694 20.1668 86.6694 18.2943 87.8717C16.4218 89.074 14.9477 90.8424 13.8719 93.177C12.8107 95.4971 12.2785 98.3254 12.2754 101.662C12.2722 105.028 12.799 107.879 13.8557 110.215C14.9125 112.552 16.3833 114.33 18.268 115.551C20.1527 116.756 22.3427 117.361 24.8378 117.363C27.1009 117.365 29.0597 116.932 30.7143 116.063C32.3834 115.194 33.6684 113.962 34.5694 112.367C35.4703 110.758 35.9218 108.873 35.9239 106.711L37.7515 106.996L25.6528 106.984L25.6588 100.674L43.7415 100.691L43.7364 106.044C43.7328 109.859 42.9173 113.159 41.2899 115.942C39.6624 118.726 37.4264 120.871 34.5816 122.377C31.7369 123.869 28.4721 124.613 24.7874 124.609C20.682 124.605 17.0779 123.681 13.9752 121.835C10.8871 119.975 8.4742 117.34 6.73663 113.929C5.01358 110.504 4.15429 106.441 4.15876 101.741C4.16218 98.1436 4.67297 94.9308 5.69113 92.103C6.7238 89.2751 8.16225 86.8756 10.0065 84.9045C11.8507 82.9188 14.0137 81.4121 16.4953 80.3845C18.977 79.3424 21.6757 78.8227 24.5916 78.8255C27.0577 78.8278 29.3567 79.1927 31.4885 79.92C33.6203 80.6329 35.5125 81.6502 37.165 82.9719C38.832 84.2936 40.2014 85.8616 41.2732 87.676C42.345 89.4903 43.0467 91.4929 43.3782 93.6838L35.1529 93.6759ZM91.368 101.781C91.3634 106.582 90.4601 110.694 88.658 114.116C86.8704 117.523 84.4308 120.132 81.3392 121.943C78.262 123.753 74.7723 124.657 70.8699 124.653C66.9676 124.649 63.4724 123.739 60.3841 121.923C57.3105 120.092 54.8758 117.471 53.0802 114.061C51.2991 110.635 50.4109 106.529 50.4154 101.742C50.42 96.94 51.3161 92.8354 53.1036 89.428C54.9057 86.0061 57.3453 83.39 60.4225 81.5796C63.5142 79.7692 67.0112 78.8658 70.9135 78.8695C74.8158 78.8732 78.3038 79.7832 81.3775 81.5995C84.4657 83.4158 86.9004 86.0366 88.6815 89.4619C90.4771 92.8727 91.3726 96.9789 91.368 101.781ZM83.2515 101.773C83.2547 98.3929 82.7279 95.5418 81.6711 93.2197C80.6289 90.8831 79.1799 89.1192 77.3241 87.9278C75.4684 86.722 73.3292 86.118 70.9066 86.1156C68.484 86.1133 66.3436 86.7133 64.4856 87.9156C62.6276 89.1034 61.168 90.8646 60.1068 93.1992C59.0601 95.5193 58.5352 98.3694 58.532 101.749C58.5287 105.13 59.0483 107.988 60.0905 110.324C61.1473 112.647 62.6036 114.41 64.4593 115.616C66.315 116.808 68.4542 117.404 70.8768 117.407C73.2995 117.409 75.4398 116.816 77.2978 115.629C79.1558 114.426 80.6081 112.665 81.6548 110.345C82.716 108.01 83.2483 105.153 83.2515 101.773Z" fill="white"/>
</svg>
