<svg width="20" height="20" viewBox="0 0 20 20" fill="none" xmlns="http://www.w3.org/2000/svg">
<path d="M6.63277 13.333H11.9805V17.3332H10.6433V14.6666H6.63277V17.3332H2.67578V16.0001H5.2956V9.33323H2.67578V8.00063H7.96994V5.33154H9.30614V9.33323H6.63277V13.333Z" fill="#FF8A3B"/>
<path d="M17.3275 2.66602V11.9991H15.9913V9.33194H10.6436V2.66602H11.9807V7.99934H15.9913V2.66602H17.3275Z" fill="#FF8A3B"/>
<path d="M17.3282 0V1.3326H14.6538V6.69263H13.3167V1.3326H3.95941V3.99975H2.67578V0H17.3282Z" fill="#FF8A3B"/>
<path d="M19.9994 0V19.9992H7.96777V15.9995H9.30446V18.6657H13.315V15.9995H14.6522V18.6657H15.9888V14.6659H13.315V11.9997H7.96777V10.6662H14.6522V13.3323H17.3255V18.6657H18.6627V0H19.9994Z" fill="#FF8A3B"/>
<path d="M9.3047 2.66666V3.99975H6.63085V6.66641H1.33717V13.3328H2.60035V10.6662H3.95748V14.6659H1.33717V18.6657H6.63085V19.9987H0V0H1.33717V5.33284H5.29416V2.66666H9.3047Z" fill="#FF8A3B"/>
</svg>
