<svg width="16" height="16" viewBox="0 0 16 16" fill="none" xmlns="http://www.w3.org/2000/svg">
<path fill-rule="evenodd" clip-rule="evenodd" d="M7.37151 0C6.61404 0 6 0.614075 6 1.37152V2.0238C6 2.21417 5.87866 2.38257 5.70284 2.45544C5.52692 2.52844 5.32323 2.49463 5.18855 2.35992L4.72713 1.8985C4.19162 1.36304 3.32339 1.36304 2.7879 1.8985L1.89864 2.78778C1.36317 3.32324 1.36317 4.19141 1.89864 4.72687L2.35995 5.18817C2.49469 5.32294 2.52852 5.52673 2.45552 5.7027C2.38255 5.8786 2.2141 6 2.02367 6H1.37151C0.614044 6 0 6.61407 0 7.37152V8.62848C0 9.38593 0.614044 10 1.37151 10H2.0235C2.21404 10 2.38258 10.1215 2.45558 10.2974C2.52864 10.4736 2.4948 10.6774 2.35997 10.8123L1.89883 11.2734C1.36342 11.8088 1.36342 12.6769 1.89883 13.2123L2.78816 14.1016C3.32368 14.6371 4.19194 14.6371 4.72746 14.1016L5.18903 13.6401C5.32361 13.5055 5.52718 13.4717 5.70299 13.5446C5.87872 13.6175 6 13.7858 6 13.976V14.6285C6 15.3859 6.61404 16 7.37151 16H8.62849C9.38596 16 10 15.3859 10 14.6285V13.9763C10 13.7859 10.1214 13.6174 10.2973 13.5445C10.4733 13.4715 10.6771 13.5053 10.8118 13.64L11.2732 14.1014C11.8087 14.637 12.677 14.637 13.2125 14.1014L14.1016 13.2124C14.6371 12.6768 14.6371 11.8085 14.1016 11.2729L13.6401 10.8115C13.5054 10.6768 13.4716 10.4731 13.5445 10.2972C13.6175 10.1213 13.7859 10 13.9762 10H14.6285C15.386 10 16 9.38593 16 8.62848V7.37152C16 6.61407 15.386 6 14.6285 6H13.9764C13.7859 6 13.6174 5.8786 13.5445 5.7027C13.4715 5.52667 13.5053 5.32281 13.64 5.18811L14.1012 4.72693C14.6366 4.19153 14.6366 3.32349 14.1012 2.78815L13.2117 1.89856C12.6762 1.36316 11.8081 1.36316 11.2727 1.89856L10.8113 2.35992C10.6767 2.49457 10.473 2.52838 10.2971 2.45544C10.1213 2.38251 10 2.21417 10 2.02386V1.37152C10 0.614075 9.38596 0 8.62849 0H7.37151ZM8 11C9.65686 11 11 9.65686 11 8C11 6.34314 9.65686 5 8 5C6.34314 5 5 6.34314 5 8C5 9.65686 6.34314 11 8 11Z" fill="#A3A3A3"/>
</svg>
