<svg width="48" height="65" viewBox="0 0 48 65" fill="none" xmlns="http://www.w3.org/2000/svg">
<path d="M47.5583 55.2276L0.207031 55.1826L0.198605 64.0447L47.5499 64.0897L47.5583 55.2276Z" fill="black"/>
<path d="M0.259766 0.0449219L0.251249 9.00235L18.9274 9.02011L18.9686 32.6063L29.0077 32.6159L29.0301 9.02972L47.6025 9.04737L47.6111 0.0899451L0.259766 0.0449219Z" fill="black"/>
<path d="M37.5471 26.6008C37.537 37.1419 31.5943 40.148 23.9813 40.1408C16.3683 40.1335 10.264 37.116 10.2741 26.5749L10.2833 16.8704L0.244141 16.8608L0.233084 28.4895C0.221311 40.8711 9.49948 49.3296 23.9726 49.3433C38.4457 49.3571 47.5726 40.9162 47.5844 28.5345L47.5954 16.9059L37.5563 16.8963L37.5471 26.6008Z" fill="black"/>
</svg>
