<svg width="144" height="18" viewBox="0 0 144 18" fill="none" xmlns="http://www.w3.org/2000/svg">
<path d="M134.434 14.0065L132.128 14.0043L132.138 4.19477L134.164 4.19669C136.017 4.19846 137.387 4.62839 138.273 5.48649C139.16 6.3446 139.605 7.56417 139.608 9.14521C139.607 10.7299 139.159 11.9376 138.266 12.7683C137.374 13.599 136.096 14.0117 134.434 14.0065ZM134.261 1.0592L128.515 1.05374L128.5 17.1862L134.06 17.1915C137.166 17.1944 139.476 16.4661 140.991 15.0065C142.506 13.5469 143.265 11.5625 143.267 9.05316C143.269 6.54506 142.495 4.58487 140.943 3.17259C139.391 1.7603 137.163 1.05584 134.259 1.0592L134.261 1.0592ZM109.785 1.03593L109.77 17.1684L121.764 17.1798L121.767 13.9944L113.404 13.9865L113.407 10.645L120.697 10.6519L120.7 7.57681L113.41 7.56988L113.413 4.24677L121.519 4.25448L121.522 1.04709L109.785 1.03593ZM103.108 17.162L103.111 14.0226L94.4741 14.0144L102.984 3.52226L102.987 1.02947L89.7785 1.01691L89.7756 4.13979L98.02 4.14763L89.4838 14.6875L89.4814 17.1564L103.108 17.162ZM78.2888 10.4922L74.2111 10.4883L76.2656 5.80412L78.2888 10.4922ZM85.0367 17.1449L78.0087 1.00572L74.487 1.00237L67.4395 17.1281L71.304 17.1318L72.8217 13.643L79.6445 13.6494L81.1555 17.1412L85.0367 17.1449ZM58.4406 17.1196L62.0735 17.123L62.0889 0.990581L57.1993 0.985932L52.9741 9.85274L48.7918 0.987126L43.8855 0.982461L43.8702 17.1149L47.5031 17.1183L47.5127 6.95429L51.8823 15.776L54.0472 15.7781L58.4577 6.96469L58.4406 17.1196ZM32.736 11.349L24.7591 0.955087L21.3579 0.951853L21.3426 17.0843L24.9755 17.0877L24.9851 6.9843L32.7306 17.0951L36.3634 17.0986L36.3788 0.966135L32.7459 0.962681L32.736 11.349ZM3.767 9.84269L3.77547 0.935135L0.142578 0.93168L0.133998 9.95496C0.131786 12.2818 0.786225 14.0753 2.09732 15.3355C3.40841 16.5957 5.0803 17.228 7.11298 17.2324C9.14814 17.2343 10.8169 16.6089 12.1193 15.3561C13.4216 14.1033 14.0751 12.3073 14.0798 9.96822L14.0884 0.944941L10.4592 0.94149L10.4508 9.84905C10.4495 11.1423 10.1495 12.1615 9.55076 12.9068C9.26469 13.2731 8.89455 13.5665 8.4711 13.7626C8.04764 13.9587 7.58309 14.0518 7.11602 14.0342C6.64818 14.0515 6.18286 13.9588 5.75812 13.7636C5.33338 13.5684 4.96129 13.2764 4.6723 12.9113C4.06754 12.1588 3.76577 11.1359 3.767 9.84269Z" fill="currentColor"/>
</svg>
