<svg width="65" height="65" viewBox="0 0 65 65" fill="none" xmlns="http://www.w3.org/2000/svg">
<path d="M38.8304 4.95136L34.5244 4.94727L34.5242 5.19428L38.8302 5.19837L38.8304 4.95136Z" fill="black"/>
<path d="M21.5735 43.5811L38.7944 43.5975L38.7822 56.3987L34.4762 56.3946L34.4843 47.861L21.5695 47.8487L21.5614 56.3823L8.81895 56.3702L8.82301 52.1042L17.2594 52.1122L17.2797 30.7773L8.84329 30.7693L8.84735 26.5048L25.8957 26.521L25.9039 17.9796L30.2067 17.9837L30.1945 30.7896L21.5857 30.7814L21.5735 43.5811Z" fill="black"/>
<path d="M56.0442 9.48238L56.0158 39.3493L51.7129 39.3453L51.721 30.8101L34.5002 30.7937L34.5205 9.46191L38.8265 9.46601L38.8103 26.5333L51.7251 26.5456L51.7413 9.47829L56.0442 9.48238Z" fill="black"/>
<path d="M56.0561 0.950138L56.0521 5.21463L47.4401 5.20644L47.4238 22.3592L43.1178 22.3551L43.1341 5.20234L13.0016 5.17369L12.9935 13.7089L8.8599 13.705L8.87207 0.905273L56.0561 0.950138Z" fill="black"/>
<path d="M64.6635 0.956762L64.6026 64.9567L25.8581 64.9199L25.8703 52.1202L30.1747 52.1243L30.1666 60.6564L43.0814 60.6687L43.0895 52.1366L47.3955 52.1407L47.3874 60.6728L51.6918 60.6769L51.704 47.8772L43.0936 47.869L43.1017 39.3369L25.8824 39.3205L25.8865 35.0529L47.4117 35.0734L47.4036 43.6055L56.0125 43.6137L55.9962 60.6809L60.3022 60.685L60.359 0.952669L64.6635 0.956762Z" fill="black"/>
<path d="M30.2149 9.45764L30.2108 13.7237L21.6004 13.7155L21.5923 22.2491L4.54547 22.2329L4.52519 43.5663L8.59291 43.5701L8.60103 35.0365L12.9713 35.0406L12.9591 47.8403L4.52113 47.8323L4.50896 60.632L21.5558 60.6482L21.5517 64.9142L0.198914 64.8939L0.259766 0.895508L4.56576 0.899602L4.54953 17.9653L17.2919 17.9774L17.3 9.44536L30.2149 9.45764Z" fill="black"/>
</svg>
